# xmcd
#
# Track frame offsets:
#	150
#	18563
#	34296
#	51846
#	68664
#	87671
#	104380
#	123774
#	142118
#	158739
#	176516
#	193926
#	207937
#	225026
#	240834
#	256892
#	274855
#	290606
#	308310
#	323153
#	341159
#	356553
#
# Disc length: 4986 seconds
#
# Revision: 1
# Processed by: cddbd v1.5.2PL0 Copyright (c) Steve Scherf et al.
# Submitted via: audiograbber 1.83.01
#
DISCID=3b137816
DTITLE=Club Sounds 90s Vol. 3 - Club Sounds 90s Vol. 3 - CD 3
DYEAR=2018
DGENRE=Club
TTITLE0=C+C Music Factory feat. Freedom Williams - Gonna Make You Sweat (Everyb
TTITLE0=ody Dance Now)
TTITLE1=Technotronic - Get Up (Before The Night Is Over)
TTITLE2=Everything but the Girl - Missing (Todd Terry Remix Radio Edit)
TTITLE3=Faithless - Salva Mea
TTITLE4=Robin S. - Luv 4 Luv
TTITLE5=Dimples D - Sucker DJ (A Witch for Love)
TTITLE6=Dj Tonka - She Knows You
TTITLE7=Undercover - Baker Street
TTITLE8=Jam and Spoon - Stella
TTITLE9=Schiller - Liebesschmerz (Fernseh Fassung)
TTITLE10=Dj Quicksilver - Bellissima
TTITLE11=Watergate - Merry Christmas Mr. Lawrence (Heart Of Asia) (DJ Quicksilv
TTITLE11=er's Radio Edit)
TTITLE12=The Thrillseekers feat. Sheryl Deane - Synaesthesia (Fly Away)
TTITLE13=Sash feat. La Trec - Stay
TTITLE14=Fragma - Toca Me
TTITLE15=Robert Miles feat. Maria Nayler - One and One
TTITLE16=Alice Deejay - Back In My Life (Hitradio Full Vocal)
TTITLE17=Kai Tracid - Liquid Skies
TTITLE18=Blank and Jones - Cream (Short Cut)
TTITLE19=Delerium feat. Sarah Mclachlan - Silence (DJ Tiesto's in Serach of Sun
TTITLE19=rise Remix Edit)
TTITLE20=RMB - Spring
TTITLE21=Paul van Dyk - For an Angel (PvD Angel in Heaven Radio Edit)
EXTD=
EXTT0=
EXTT1=
EXTT2=
EXTT3=
EXTT4=
EXTT5=
EXTT6=
EXTT7=
EXTT8=
EXTT9=
EXTT10=
EXTT11=
EXTT12=
EXTT13=
EXTT14=
EXTT15=
EXTT16=
EXTT17=
EXTT18=
EXTT19=
EXTT20=
EXTT21=
PLAYORDER=
